HIERARCHY
ROOT Hips
{
	OFFSET 39.569801 -4.357766 98.838997
	CHANNELS 6 Xposition Yposition Zposition Xrotation Yrotation Zrotation
	JOINT spine
	{
		OFFSET 0.000000 -0.477353 8.301033
		CHANNELS 3 Xrotation Yrotation Zrotation
		JOINT spine1
		{
			OFFSET 0.000000 -0.000001 10.456497
			CHANNELS 3 Xrotation Yrotation Zrotation
			JOINT spine2
			{
				OFFSET 0.000000 -0.000002 10.019203
				CHANNELS 3 Xrotation Yrotation Zrotation
				JOINT Neck
				{
					OFFSET 0.000000 -1.226414 25.723503
					CHANNELS 3 Xrotation Yrotation Zrotation
					JOINT Head
					{
						OFFSET 0.000000 -0.000001 7.771744
						CHANNELS 3 Xrotation Yrotation Zrotation
						End Site
						{
							OFFSET 0.000000 6.203937 18.811996
						}
					}
				}
				JOINT RightShoulder
				{
					OFFSET -4.218800 0.587438 10.820000
					CHANNELS 3 Xrotation Yrotation Zrotation
					JOINT RightArm
					{
						OFFSET 0.000000 -0.000002 14.191406
						CHANNELS 3 Xrotation Yrotation Zrotation
						JOINT RightArmRoll
						{
							OFFSET 0.000000 -0.000001 7.164093
							CHANNELS 3 Xrotation Yrotation Zrotation
							JOINT RightForeArm
							{
								OFFSET 0.000000 -0.000003 20.866501
								CHANNELS 3 Xrotation Yrotation Zrotation
								JOINT RightForeArmRoll
								{
									OFFSET 0.000000 -0.000001 8.039215
									CHANNELS 3 Xrotation Yrotation Zrotation
									JOINT RightHand
									{
										OFFSET 0.000000 -0.000003 16.132996
										CHANNELS 3 Xrotation Yrotation Zrotation
										End Site
										{
											OFFSET 0.000000 0.000000 0.100006
										}
									}
								}
							}
						}
					}
				}
				JOINT LeftShoulder
				{
					OFFSET 4.218800 0.587438 10.820000
					CHANNELS 3 Xrotation Yrotation Zrotation
					JOINT LeftArm
					{
						OFFSET 0.000000 -0.000002 14.191406
						CHANNELS 3 Xrotation Yrotation Zrotation
						JOINT LeftArmRoll
						{
							OFFSET 0.000000 -0.000001 7.164078
							CHANNELS 3 Xrotation Yrotation Zrotation
							JOINT LeftForeArm
							{
								OFFSET 0.000000 -0.000003 20.866501
								CHANNELS 3 Xrotation Yrotation Zrotation
								JOINT LeftForeArmRoll
								{
									OFFSET 0.000000 -0.000001 8.039215
									CHANNELS 3 Xrotation Yrotation Zrotation
									JOINT LeftHand
									{
										OFFSET 0.000000 -0.000003 16.132996
										CHANNELS 3 Xrotation Yrotation Zrotation
										End Site
										{
											OFFSET 0.000000 0.000000 0.100006
										}
									}
								}
							}
						}
					}
				}
			}
		}
	}
	JOINT RightUpLeg
	{
		OFFSET -7.357731 1.131810 -1.349213
		CHANNELS 3 Xrotation Yrotation Zrotation
		JOINT RightUpLegRoll
		{
			OFFSET 0.000000 -0.000003 18.916801
			CHANNELS 3 Xrotation Yrotation Zrotation
			JOINT RightLeg
			{
				OFFSET 0.000000 0.000004 -23.425598
				CHANNELS 3 Xrotation Yrotation Zrotation
				JOINT RightLegRoll
				{
					OFFSET 0.000000 -0.000004 23.502304
					CHANNELS 3 Xrotation Yrotation Zrotation
					JOINT RightFoot
					{
						OFFSET 0.000000 -0.000003 19.561707
						CHANNELS 3 Xrotation Yrotation Zrotation
						JOINT RightToeBase
						{
							OFFSET 0.000000 -0.000003 16.352600
							CHANNELS 3 Xrotation Yrotation Zrotation
							End Site
							{
								OFFSET 0.006931 0.912836 7.919434
							}
						}
					}
				}
			}
		}
	}
	JOINT LeftUpLeg
	{
		OFFSET 7.357731 1.131810 -1.349213
		CHANNELS 3 Xrotation Yrotation Zrotation
		JOINT LeftUpLegRoll
		{
			OFFSET 0.000000 -0.000003 18.916901
			CHANNELS 3 Xrotation Yrotation Zrotation
			JOINT LeftLeg
			{
				OFFSET 0.000000 -0.000004 23.425499
				CHANNELS 3 Xrotation Yrotation Zrotation
				JOINT LeftLegRoll
				{
					OFFSET 0.000000 -0.000004 23.719498
					CHANNELS 3 Xrotation Yrotation Zrotation
					JOINT LeftFoot
					{
						OFFSET 0.000000 -0.000003 19.344406
						CHANNELS 3 Xrotation Yrotation Zrotation
						JOINT LeftToeBase
						{
							OFFSET 0.000000 -0.000003 16.352600
							CHANNELS 3 Xrotation Yrotation Zrotation
							End Site
							{
								OFFSET -0.031063 0.912836 7.919434
							}
						}
					}
				}
			}
		}
	}
}
MOTION
Frames: 4
Frame Time: 0.041667
39.509396 -3.077806 98.837593 -1.079508 -1.098595 1.354810 -1.776787 -0.028453 0.104240 0.440679 -0.080892 0.235447 2.085732 -0.078197 0.236368 19.203514 2.654636 -0.987112 -6.377809 -1.339332 -0.894043 -2.963444 -73.378396 -4.930075 -73.538905 -110.133624 -47.582817 -0.000001 0.000001 0.000001 0.068937 -9.927852 -0.005915 0.000002 -0.000004 -3.041598 -5.000227 -7.998781 0.000139 5.035329 66.762394 -4.686898 -41.380554 103.718847 22.886618 0.000000 -0.000000 -0.000001 5.685441 9.975186 0.100561 -0.000001 0.000002 3.000000 -5.000237 7.998781 -0.000159 -0.548609 -175.332199 1.602653 -179.999991 0.000005 -1.035998 175.482313 -4.697431 -0.556730 -0.000003 0.000001 0.055276 68.945821 6.874790 2.181712 25.456953 -7.355614 0.000001 -0.368327 176.903074 2.024470 -0.000005 -0.000004 -1.107920 -7.642622 3.201923 0.874447 -0.000008 0.000001 -0.099200 68.442471 -6.923132 -2.085048 25.456955 7.355613 -0.000010 
39.510502 -3.073728 98.835197 -1.084378 -1.098713 1.352724 -1.776340 -0.028653 0.104240 0.442760 -0.079726 0.235308 2.087821 -0.077028 0.236221 19.235841 2.659999 -0.983653 -6.414951 -1.343667 -0.889897 -2.977640 -73.367392 -4.944539 -73.572066 -110.179407 -47.599247 -0.000003 -0.000001 0.000001 0.069014 -9.889843 -0.003815 0.000003 -0.000004 -3.041571 -5.000226 -7.998781 0.000139 5.060946 66.774409 -4.713830 -41.486798 103.700119 23.005298 0.000001 -0.000002 -0.000004 5.737080 9.981370 0.096827 0.000002 0.000002 3.000000 -5.000240 7.998781 -0.000157 -0.547685 -175.333224 1.599578 -179.999991 0.000005 -1.035998 175.479048 -4.692425 -0.556605 -0.000003 0.000001 0.055275 68.945514 6.874809 2.181634 25.456957 -7.355615 0.000001 -0.374497 176.903074 2.028164 -0.000005 -0.000004 -1.107920 -7.659025 3.197449 0.874781 -0.000008 0.000001 -0.099200 68.452156 -6.923130 -2.084541 25.456959 7.355613 -0.000011 
39.509998 -3.072656 98.836494 -1.089231 -1.098832 1.350569 -1.775910 -0.028860 0.104240 0.444869 -0.078508 0.235179 2.089931 -0.075807 0.236084 19.268360 2.664968 -0.980059 -6.452681 -1.347472 -0.885644 -2.991997 -73.355863 -4.959146 -73.603273 -110.224124 -47.617244 -0.000001 -0.000001 0.000000 0.069128 -9.855603 -0.001851 0.000004 -0.000004 -3.041542 -5.000230 -7.998781 0.000138 5.086665 66.785918 -4.740947 -41.589780 103.681992 23.122461 0.000000 -0.000001 -0.000002 5.789584 9.988925 0.092913 0.000001 0.000002 2.999999 -5.000241 7.998780 -0.000159 -0.546803 -175.335204 1.596379 -179.999991 0.000005 -1.035998 175.475742 -4.687420 -0.556481 -0.000003 0.000001 0.055275 68.945302 6.874795 2.181645 25.456959 -7.355615 0.000000 -0.380976 176.904072 2.032047 -0.000005 -0.000004 -1.107920 -7.675906 3.192792 0.875121 -0.000008 0.000001 -0.099200 68.462169 -6.923145 -2.084016 25.456957 7.355613 -0.000011 
39.507996 -3.062697 98.835503 -1.094050 -1.098970 1.348364 -1.775481 -0.029073 0.104241 0.446998 -0.077254 0.235057 2.092052 -0.074549 0.235953 19.300873 2.669661 -0.976363 -6.490810 -1.350898 -0.881317 -3.006478 -73.344047 -4.973853 -73.633114 -110.268152 -47.636386 0.000001 -0.000000 0.000000 0.069268 -9.823993 0.000015 0.000002 -0.000004 -3.041494 -5.000230 -7.998780 0.000140 5.112423 66.797010 -4.768166 -41.692393 103.663796 23.240371 0.000000 -0.000000 -0.000004 5.842706 9.997256 0.088880 -0.000001 0.000002 3.000001 -5.000237 7.998781 -0.000157 -0.545958 -175.337199 1.593076 -179.999991 0.000005 -1.035998 175.472450 -4.682414 -0.556358 -0.000003 0.000001 0.055276 68.944988 6.874813 2.181667 25.456955 -7.355616 0.000000 -0.387680 176.905069 2.036071 -0.000005 -0.000004 -1.107920 -7.693137 3.187995 0.875462 -0.000008 0.000001 -0.099200 68.472483 -6.923109 -2.083562 25.456957 7.355614 -0.000009 
